<?xml version="1.0" encoding="UTF-8"?>
<svg id="Layer_1_copy" data-name="Layer 1 copy" xmlns="http://www.w3.org/2000/svg" viewBox="0 0 498.82 299.17">
  <defs>
    <style>
      .cls-1 {
        fill: #f3f3ee;
      }

      .cls-2 {
        fill: #f43e01;
      }
    </style>
  </defs>
  <path class="cls-2" d="M297.32,111.54h-.01c-36.59,0-66.36,29.77-66.36,66.36s29.77,66.36,66.36,66.36,66.36-29.77,66.36-66.38c-.06-36.52-29.83-66.29-66.35-66.35ZM328.47,177.9c0,17.19-13.98,31.17-31.17,31.17s-31.17-13.98-31.17-31.17,13.98-31.17,31.17-31.17,31.17,13.98,31.17,31.17Z"/>
  <path class="cls-2" d="M140.69,171.78c.14-3.92.48-7.72,1.22-11.58l.02-.08c.95-4.55,2.39-8.92,4.28-13.02,3.94-8.38,9.75-15.76,16.83-21.38,6.94-5.47,15.06-9.55,23.5-11.8,4.14-1.15,8.42-1.89,12.74-2.2,9.56-.69,19.01.38,28.01,3.75,3.33,1.25,6.66,2.83,9.77,4.63l5.27,3.06-16.9,29.39-5.27-2.94c-3.65-2.04-7.6-3.29-11.74-3.71-4.33-.39-8.8,0-13,1.15-3.97,1.06-7.76,2.98-10.97,5.55-3,2.42-5.43,5.51-7,8.92-1.7,3.67-2.33,7.72-2.33,11.74v66.49h-34.43v-68Z"/>
  <path class="cls-2" d="M128.73,174.02c-.42-16.82-7.27-32.55-19.29-44.31-12.01-11.74-27.87-18.23-44.65-18.27h-.54C29.19,111.44.51,139.87.21,175.07c-.15,17.14,6.36,33.33,18.35,45.57,11.99,12.25,28,19.07,45.14,19.22h19.53v-34.01h-18.55c-8.04.11-15.64-2.96-21.39-8.59-5.75-5.63-8.97-13.18-9.06-21.26-.18-16.65,13.15-30.35,29.73-30.55h.8c16.55,0,30.09,13.55,30.19,30.17v59.37c0,16.43-13.37,29.96-29.82,30.17-7.88-.06-15.28-3.19-20.84-8.82l-4.32-4.36-.02.02-17.35,30.65c11.58,10.57,26.42,16.41,42.16,16.53h.87c16.88-.24,32.71-6.99,44.58-19.02,11.86-12.02,18.45-27.97,18.54-44.94v-61.19h-.02Z"/>
  <path class="cls-2" d="M434.93,111.54c-17.14,0-33.24,6.68-45.35,18.82-12.09,12.12-18.73,28.22-18.7,45.32,0,35.34,28.73,64.09,64.05,64.09h18.17v-33.96h-18.17c-16.6,0-30.11-13.51-30.11-30.13s13.51-30.13,30.11-30.13c7.54,0,14.77,2.82,20.34,7.93,5.38,4.94,9.61,11.56,9.61,18.85v122.74h33.94v-119.4c0-35.37-28.66-64.15-63.89-64.15Z"/>
  <g>
    <path class="cls-1" d="M0,69.89V0h27.76c4.26,0,8.07.85,11.43,2.55,3.36,1.7,5.99,4.09,7.89,7.19s2.85,6.81,2.85,11.13v1.3c0,4.33-.98,8.05-2.95,11.18-1.96,3.13-4.61,5.53-7.94,7.19-3.33,1.66-7.09,2.5-11.28,2.5H10.78v26.86H0ZM10.78,33.25h15.88c3.79,0,6.82-1,9.09-3,2.26-2,3.39-4.73,3.39-8.19v-1c0-3.53-1.13-6.29-3.39-8.29-2.26-2-5.29-3-9.09-3h-15.88v23.46Z"/>
    <path class="cls-1" d="M76.18,71.29c-4.93,0-9.3-1.02-13.13-3.05-3.83-2.03-6.84-4.94-9.04-8.74-2.2-3.79-3.29-8.29-3.29-13.48v-1.5c0-5.19,1.1-9.67,3.29-13.43,2.2-3.76,5.21-6.67,9.04-8.74,3.83-2.06,8.2-3.1,13.13-3.1s9.32,1.03,13.18,3.1c3.86,2.06,6.89,4.98,9.09,8.74,2.2,3.76,3.29,8.24,3.29,13.43v1.5c0,5.19-1.1,9.68-3.29,13.48-2.2,3.79-5.23,6.71-9.09,8.74-3.86,2.03-8.25,3.05-13.18,3.05ZM76.18,62.1c4.53,0,8.2-1.45,11.03-4.34,2.83-2.9,4.24-6.9,4.24-12.03v-.9c0-5.12-1.4-9.14-4.19-12.03-2.79-2.9-6.49-4.34-11.08-4.34s-8.11,1.45-10.93,4.34c-2.83,2.9-4.24,6.91-4.24,12.03v.9c0,5.13,1.41,9.14,4.24,12.03,2.83,2.9,6.47,4.34,10.93,4.34Z"/>
    <path class="cls-1" d="M113.32,69.89l-8.39-49.22h10.29l6.19,42.33h1.6l8.59-42.33h16.67l8.49,42.33h1.6l6.19-42.33h10.29l-8.39,49.22h-17.27l-8.49-42.23h-1.6l-8.49,42.23h-17.27Z"/>
    <path class="cls-1" d="M202.98,71.29c-4.99,0-9.35-1.05-13.08-3.15-3.73-2.1-6.64-5.06-8.74-8.89-2.1-3.83-3.15-8.27-3.15-13.33v-1.2c0-5.12,1.03-9.6,3.1-13.43,2.06-3.83,4.94-6.79,8.64-8.89,3.69-2.1,7.97-3.15,12.83-3.15s8.87,1.05,12.43,3.15c3.56,2.1,6.34,5.01,8.34,8.74,2,3.73,3,8.09,3,13.08v3.89h-37.84c.13,4.33,1.58,7.77,4.34,10.33,2.76,2.56,6.21,3.84,10.33,3.84,3.86,0,6.77-.86,8.74-2.6,1.96-1.73,3.48-3.73,4.54-5.99l8.49,4.39c-.93,1.86-2.28,3.83-4.04,5.89-1.76,2.06-4.08,3.79-6.94,5.19-2.86,1.4-6.53,2.1-10.98,2.1ZM188.61,40.24h27.26c-.27-3.73-1.6-6.64-3.99-8.74-2.4-2.1-5.53-3.15-9.38-3.15s-7.01,1.05-9.44,3.15c-2.43,2.1-3.91,5.01-4.44,8.74Z"/>
    <path class="cls-1" d="M232.74,69.89V20.67h10.08v5.79h1.6c.8-2.06,2.08-3.58,3.84-4.54,1.76-.96,3.94-1.45,6.54-1.45h5.89v9.29h-6.29c-3.33,0-6.06.92-8.19,2.75-2.13,1.83-3.2,4.64-3.2,8.44v28.96h-10.28Z"/>
    <path class="cls-1" d="M286.16,71.29c-4.99,0-9.35-1.05-13.08-3.15-3.73-2.1-6.64-5.06-8.74-8.89-2.1-3.83-3.14-8.27-3.14-13.33v-1.2c0-5.12,1.03-9.6,3.1-13.43,2.06-3.83,4.94-6.79,8.64-8.89,3.69-2.1,7.97-3.15,12.83-3.15s8.87,1.05,12.43,3.15c3.56,2.1,6.34,5.01,8.34,8.74,2,3.73,2.99,8.09,2.99,13.08v3.89h-37.84c.13,4.33,1.58,7.77,4.34,10.33,2.76,2.56,6.21,3.84,10.33,3.84,3.86,0,6.77-.86,8.74-2.6,1.96-1.73,3.48-3.73,4.54-5.99l8.49,4.39c-.93,1.86-2.28,3.83-4.04,5.89-1.76,2.06-4.08,3.79-6.94,5.19-2.86,1.4-6.52,2.1-10.98,2.1ZM271.78,40.24h27.26c-.27-3.73-1.6-6.64-3.99-8.74-2.4-2.1-5.53-3.15-9.38-3.15s-7.01,1.05-9.44,3.15c-2.43,2.1-3.91,5.01-4.44,8.74Z"/>
    <path class="cls-1" d="M336.28,71.29c-4.06,0-7.82-1-11.28-3-3.46-2-6.24-4.88-8.34-8.64-2.1-3.76-3.14-8.3-3.14-13.63v-1.5c0-5.26,1.03-9.78,3.1-13.58,2.06-3.79,4.82-6.69,8.29-8.69,3.46-2,7.25-3,11.38-3,3.19,0,5.87.4,8.04,1.2,2.16.8,3.94,1.81,5.34,3.05,1.4,1.23,2.46,2.51,3.2,3.84h1.6V0h10.29v69.89h-10.08v-6.99h-1.6c-1.27,2.13-3.18,4.06-5.74,5.79-2.56,1.73-6.24,2.6-11.03,2.6ZM339.17,62.3c4.46,0,8.14-1.43,11.03-4.29,2.89-2.86,4.34-6.96,4.34-12.28v-.9c0-5.26-1.43-9.32-4.29-12.18-2.86-2.86-6.56-4.29-11.08-4.29s-8.04,1.43-10.93,4.29c-2.89,2.86-4.34,6.92-4.34,12.18v.9c0,5.33,1.45,9.42,4.34,12.28,2.9,2.86,6.54,4.29,10.93,4.29Z"/>
    <path class="cls-1" d="M421.84,71.29c-4.79,0-8.47-.87-11.03-2.6-2.56-1.73-4.48-3.66-5.74-5.79h-1.6v6.99h-10.08V0h10.28v27.36h1.6c.8-1.33,1.86-2.61,3.2-3.84,1.33-1.23,3.1-2.25,5.29-3.05,2.2-.8,4.89-1.2,8.09-1.2,4.13,0,7.92,1,11.38,3,3.46,2,6.22,4.89,8.29,8.69,2.06,3.79,3.1,8.32,3.1,13.58v1.5c0,5.33-1.05,9.87-3.14,13.63-2.1,3.76-4.86,6.64-8.29,8.64-3.43,2-7.21,3-11.33,3ZM418.85,62.3c4.46,0,8.14-1.43,11.03-4.29,2.89-2.86,4.34-6.96,4.34-12.28v-.9c0-5.26-1.43-9.32-4.29-12.18-2.86-2.86-6.56-4.29-11.08-4.29s-8.04,1.43-10.93,4.29c-2.9,2.86-4.34,6.92-4.34,12.18v.9c0,5.33,1.45,9.42,4.34,12.28,2.89,2.86,6.54,4.29,10.93,4.29Z"/>
    <path class="cls-1" d="M457.09,89.86v-8.99h27.46c1.86,0,2.8-1,2.8-3v-15.18h-1.6c-.6,1.33-1.52,2.61-2.75,3.84-1.23,1.23-2.88,2.25-4.94,3.05-2.06.8-4.66,1.2-7.79,1.2-3.73,0-7.06-.83-9.98-2.5-2.93-1.66-5.23-4.03-6.89-7.09-1.66-3.06-2.5-6.69-2.5-10.88v-29.65h10.28v28.86c0,4.26,1.06,7.41,3.2,9.44,2.13,2.03,5.09,3.05,8.89,3.05,4.19,0,7.57-1.4,10.13-4.19,2.56-2.8,3.84-6.85,3.84-12.18v-24.96h10.28v59.31c0,3-.88,5.39-2.65,7.19-1.76,1.8-4.18,2.7-7.24,2.7h-30.55Z"/>
  </g>
</svg>